<svg width="600" height="400" viewBox="0 0 600 400" fill="none" xmlns="http://www.w3.org/2000/svg">
<rect width="600" height="400" rx="10" fill="#FBFFFD"/>
<path d="M24.1335 26.216C23.3511 26.216 22.6887 26.0408 22.1463 25.6904C21.6039 25.34 21.1911 24.8576 20.9079 24.2432C20.6295 23.624 20.4855 22.9136 20.4759 22.112C20.4855 21.296 20.6343 20.5808 20.9223 19.9664C21.2103 19.3472 21.6255 18.8672 22.1679 18.5264C22.7103 18.1808 23.3679 18.008 24.1407 18.008C24.9279 18.008 25.6119 18.2 26.1927 18.584C26.7783 18.968 27.1791 19.4936 27.3951 20.1608L26.3583 20.492C26.1759 20.0264 25.8855 19.6664 25.4871 19.412C25.0935 19.1528 24.6423 19.0232 24.1335 19.0232C23.5623 19.0232 23.0895 19.1552 22.7151 19.4192C22.3407 19.6784 22.0623 20.0408 21.8799 20.5064C21.6975 20.972 21.6039 21.5072 21.5991 22.112C21.6087 23.0432 21.8247 23.792 22.2471 24.3584C22.6695 24.92 23.2983 25.2008 24.1335 25.2008C24.6615 25.2008 25.1103 25.0808 25.4799 24.8408C25.8543 24.596 26.1375 24.2408 26.3295 23.7752L27.3951 24.092C27.1071 24.7832 26.6847 25.3112 26.1279 25.676C25.5711 26.036 24.9063 26.216 24.1335 26.216ZM31.9176 26.216C31.1448 26.216 30.4848 26.0408 29.9376 25.6904C29.3904 25.34 28.9704 24.8552 28.6776 24.236C28.3848 23.6168 28.2384 22.9064 28.2384 22.1048C28.2384 21.2888 28.3872 20.5736 28.6848 19.9592C28.9824 19.3448 29.4048 18.8672 29.952 18.5264C30.504 18.1808 31.1592 18.008 31.9176 18.008C32.6952 18.008 33.3576 18.1832 33.9048 18.5336C34.4568 18.8792 34.8768 19.3616 35.1648 19.9808C35.4576 20.5952 35.604 21.3032 35.604 22.1048C35.604 22.9208 35.4576 23.6384 35.1648 24.2576C34.872 24.872 34.4496 25.352 33.8976 25.6976C33.3456 26.0432 32.6856 26.216 31.9176 26.216ZM31.9176 25.2008C32.7816 25.2008 33.4248 24.9152 33.8472 24.344C34.2696 23.768 34.4808 23.0216 34.4808 22.1048C34.4808 21.164 34.2672 20.4152 33.84 19.8584C33.4176 19.3016 32.7768 19.0232 31.9176 19.0232C31.3368 19.0232 30.8568 19.1552 30.4776 19.4192C30.1032 19.6784 29.8224 20.0408 29.6352 20.5064C29.4528 20.9672 29.3616 21.5 29.3616 22.1048C29.3616 23.0408 29.5776 23.792 30.0096 24.3584C30.4416 24.92 31.0776 25.2008 31.9176 25.2008ZM40.2091 26.216C39.4843 26.216 38.8651 26.036 38.3515 25.676C37.8379 25.3112 37.4443 24.8192 37.1707 24.2C36.8971 23.5808 36.7603 22.8824 36.7603 22.1048C36.7603 21.332 36.8947 20.636 37.1635 20.0168C37.4371 19.3976 37.8283 18.908 38.3371 18.548C38.8459 18.188 39.4555 18.008 40.1659 18.008C40.8955 18.008 41.5099 18.1856 42.0091 18.5408C42.5083 18.896 42.8851 19.3832 43.1395 20.0024C43.3987 20.6168 43.5283 21.3176 43.5283 22.1048C43.5283 22.8776 43.4011 23.576 43.1467 24.2C42.8923 24.8192 42.5179 25.3112 42.0235 25.676C41.5291 26.036 40.9243 26.216 40.2091 26.216ZM40.3171 25.2296C40.8691 25.2296 41.3251 25.0952 41.6851 24.8264C42.0451 24.5576 42.3139 24.188 42.4915 23.7176C42.6691 23.2424 42.7579 22.7048 42.7579 22.1048C42.7579 21.4952 42.6691 20.9576 42.4915 20.492C42.3139 20.0216 42.0451 19.6544 41.6851 19.3904C41.3299 19.1264 40.8811 18.9944 40.3387 18.9944C39.7819 18.9944 39.3211 19.1312 38.9563 19.4048C38.5915 19.6784 38.3203 20.0504 38.1427 20.5208C37.9699 20.9912 37.8835 21.5192 37.8835 22.1048C37.8835 22.6952 37.9723 23.228 38.1499 23.7032C38.3323 24.1736 38.6035 24.5456 38.9635 24.8192C39.3235 25.0928 39.7747 25.2296 40.3171 25.2296ZM42.7579 26V20.1464H42.6427V15.632H43.7083V26H42.7579ZM49.0186 26.216C48.2602 26.216 47.6026 26.048 47.0458 25.712C46.4938 25.376 46.0642 24.9032 45.757 24.2936C45.4498 23.684 45.2962 22.9688 45.2962 22.148C45.2962 21.2984 45.4474 20.564 45.7498 19.9448C46.0522 19.3256 46.477 18.848 47.0242 18.512C47.5762 18.176 48.2266 18.008 48.9754 18.008C49.7434 18.008 50.3986 18.1856 50.941 18.5408C51.4834 18.8912 51.8938 19.3952 52.1722 20.0528C52.4506 20.7104 52.5778 21.4952 52.5538 22.4072H51.4738V22.0328C51.4546 21.0248 51.2362 20.264 50.8186 19.7504C50.4058 19.2368 49.801 18.98 49.0042 18.98C48.169 18.98 47.5282 19.2512 47.0818 19.7936C46.6402 20.336 46.4194 21.1088 46.4194 22.112C46.4194 23.0912 46.6402 23.852 47.0818 24.3944C47.5282 24.932 48.1594 25.2008 48.9754 25.2008C49.5322 25.2008 50.017 25.0736 50.4298 24.8192C50.8474 24.56 51.1762 24.188 51.4162 23.7032L52.4026 24.0848C52.0954 24.7616 51.6418 25.2872 51.0418 25.6616C50.4466 26.0312 49.7722 26.216 49.0186 26.216ZM46.045 22.4072V21.5216H51.985V22.4072H46.045ZM58.3853 26C57.9485 26.0912 57.5165 26.1272 57.0893 26.108C56.6669 26.0888 56.2877 25.9976 55.9517 25.8344C55.6205 25.6712 55.3685 25.4168 55.1957 25.0712C55.0565 24.7832 54.9797 24.4928 54.9653 24.2C54.9557 23.9024 54.9509 23.564 54.9509 23.1848V16.064H56.0021V23.1416C56.0021 23.468 56.0045 23.7416 56.0093 23.9624C56.0189 24.1784 56.0693 24.3704 56.1605 24.5384C56.3333 24.86 56.6069 25.052 56.9813 25.1144C57.3605 25.1768 57.8285 25.1624 58.3853 25.0712V26ZM53.2877 19.1312V18.224H58.3853V19.1312H53.2877ZM59.9173 26V18.224H60.8677V20.096L60.6805 19.8512C60.7669 19.6208 60.8797 19.4096 61.0189 19.2176C61.1581 19.0208 61.3093 18.86 61.4725 18.7352C61.6741 18.5576 61.9093 18.4232 62.1781 18.332C62.4469 18.236 62.7181 18.1808 62.9917 18.1664C63.2653 18.1472 63.5149 18.1664 63.7405 18.224V19.2176C63.4573 19.1456 63.1477 19.1288 62.8117 19.1672C62.4757 19.2056 62.1661 19.34 61.8829 19.5704C61.6237 19.772 61.4293 20.0144 61.2997 20.2976C61.1701 20.576 61.0837 20.8736 61.0405 21.1904C60.9973 21.5024 60.9757 21.812 60.9757 22.1192V26H59.9173ZM68.2561 26.216C67.4977 26.216 66.8401 26.048 66.2833 25.712C65.7313 25.376 65.3017 24.9032 64.9945 24.2936C64.6873 23.684 64.5337 22.9688 64.5337 22.148C64.5337 21.2984 64.6849 20.564 64.9873 19.9448C65.2897 19.3256 65.7145 18.848 66.2617 18.512C66.8137 18.176 67.4641 18.008 68.2129 18.008C68.9809 18.008 69.6361 18.1856 70.1785 18.5408C70.7209 18.8912 71.1313 19.3952 71.4097 20.0528C71.6881 20.7104 71.8153 21.4952 71.7913 22.4072H70.7113V22.0328C70.6921 21.0248 70.4737 20.264 70.0561 19.7504C69.6433 19.2368 69.0385 18.98 68.2417 18.98C67.4065 18.98 66.7657 19.2512 66.3193 19.7936C65.8777 20.336 65.6569 21.1088 65.6569 22.112C65.6569 23.0912 65.8777 23.852 66.3193 24.3944C66.7657 24.932 67.3969 25.2008 68.2129 25.2008C68.7697 25.2008 69.2545 25.0736 69.6673 24.8192C70.0849 24.56 70.4137 24.188 70.6537 23.7032L71.6401 24.0848C71.3329 24.7616 70.8793 25.2872 70.2793 25.6616C69.6841 26.0312 69.0097 26.216 68.2561 26.216ZM65.2825 22.4072V21.5216H71.2225V22.4072H65.2825ZM76.6796 26.216C75.9212 26.216 75.2636 26.048 74.7068 25.712C74.1548 25.376 73.7252 24.9032 73.418 24.2936C73.1108 23.684 72.9572 22.9688 72.9572 22.148C72.9572 21.2984 73.1084 20.564 73.4108 19.9448C73.7132 19.3256 74.138 18.848 74.6852 18.512C75.2372 18.176 75.8876 18.008 76.6364 18.008C77.4044 18.008 78.0596 18.1856 78.602 18.5408C79.1444 18.8912 79.5548 19.3952 79.8332 20.0528C80.1116 20.7104 80.2388 21.4952 80.2148 22.4072H79.1348V22.0328C79.1156 21.0248 78.8972 20.264 78.4796 19.7504C78.0668 19.2368 77.462 18.98 76.6652 18.98C75.83 18.98 75.1892 19.2512 74.7428 19.7936C74.3012 20.336 74.0804 21.1088 74.0804 22.112C74.0804 23.0912 74.3012 23.852 74.7428 24.3944C75.1892 24.932 75.8204 25.2008 76.6364 25.2008C77.1932 25.2008 77.678 25.0736 78.0908 24.8192C78.5084 24.56 78.8372 24.188 79.0772 23.7032L80.0636 24.0848C79.7564 24.7616 79.3028 25.2872 78.7028 25.6616C78.1076 26.0312 77.4332 26.216 76.6796 26.216ZM73.706 22.4072V21.5216H79.646V22.4072H73.706Z" fill="#33BB66"/>
<path d="M94.5 15.1997L89.7 24.7997L99.3 24.7997L94.5 15.1997Z" fill="#33BB66"/>
<rect x="267" y="40" width="73" height="40" rx="20" stroke="#111111" stroke-width="2"/>
<path d="M293.119 57.5045V59.743H295.897V60.854H293.119V64H291.612V56.3935H296.43L296.271 57.5045H293.119ZM299.583 60.15C299.583 60.645 299.623 61.0978 299.704 61.5085C299.784 61.9155 299.911 62.3023 300.083 62.669C300.256 63.032 300.479 63.3932 300.754 63.7525C301.033 64.1118 301.37 64.4932 301.766 64.8965L300.941 65.6665C300.355 65.1715 299.849 64.6545 299.423 64.1155C299.002 63.5765 298.675 62.9843 298.444 62.339C298.217 61.6937 298.103 60.964 298.103 60.15C298.103 59.336 298.217 58.6063 298.444 57.961C298.675 57.312 299.002 56.7198 299.423 56.1845C299.849 55.6455 300.355 55.1285 300.941 54.6335L301.766 55.4035C301.389 55.7885 301.062 56.1607 300.787 56.52C300.512 56.8793 300.285 57.2442 300.105 57.6145C299.929 57.9812 299.797 58.3717 299.709 58.786C299.625 59.1967 299.583 59.6513 299.583 60.15ZM307.295 56.2285C307.618 56.2285 307.911 56.2707 308.175 56.355C308.443 56.4357 308.683 56.5512 308.896 56.7015L308.34 57.6035C308.186 57.4972 308.021 57.4183 307.845 57.367C307.669 57.3157 307.491 57.29 307.312 57.29C306.982 57.29 306.692 57.3982 306.443 57.6145C306.197 57.8308 306.004 58.1425 305.865 58.5495C305.729 58.9528 305.66 59.4405 305.656 60.0125L305.667 60.48C305.663 61.3673 305.751 62.0255 305.931 62.4545C306.114 62.8835 306.437 63.098 306.899 63.098C307.28 63.098 307.563 62.9477 307.746 62.647C307.929 62.3463 308.021 61.965 308.021 61.503C308.021 61.129 307.979 60.8338 307.895 60.6175C307.81 60.3975 307.693 60.2398 307.543 60.1445C307.392 60.0455 307.211 59.996 306.998 59.996C306.712 59.996 306.443 60.0803 306.19 60.249C305.94 60.414 305.728 60.6358 305.552 60.9145L305.541 59.9135C305.783 59.5798 306.059 59.336 306.371 59.182C306.683 59.028 307.007 58.951 307.345 58.951C307.737 58.951 308.094 59.0463 308.417 59.237C308.74 59.424 308.996 59.7008 309.187 60.0675C309.381 60.4342 309.479 60.887 309.479 61.426C309.479 61.954 309.37 62.4252 309.154 62.8395C308.938 63.2502 308.633 63.5747 308.241 63.813C307.852 64.0477 307.401 64.165 306.888 64.165C306.397 64.165 305.979 64.0733 305.634 63.89C305.289 63.703 305.009 63.4445 304.793 63.1145C304.576 62.7808 304.417 62.3922 304.314 61.9485C304.215 61.5012 304.166 61.0208 304.166 60.5075C304.166 59.6568 304.29 58.9107 304.54 58.269C304.789 57.6237 305.146 57.1232 305.612 56.7675C306.081 56.4082 306.642 56.2285 307.295 56.2285ZM314.017 60.15C314.017 59.6513 313.973 59.1967 313.885 58.786C313.801 58.3717 313.669 57.9812 313.489 57.6145C313.313 57.2442 313.088 56.8793 312.813 56.52C312.538 56.1607 312.211 55.7885 311.834 55.4035L312.659 54.6335C313.245 55.1285 313.75 55.6455 314.171 56.1845C314.597 56.7198 314.923 57.312 315.15 57.961C315.381 58.6063 315.497 59.336 315.497 60.15C315.497 60.964 315.381 61.6937 315.15 62.339C314.923 62.9843 314.597 63.5765 314.171 64.1155C313.75 64.6545 313.245 65.1715 312.659 65.6665L311.834 64.8965C312.23 64.4932 312.565 64.1118 312.84 63.7525C313.119 63.3932 313.344 63.032 313.517 62.669C313.689 62.3023 313.816 61.9155 313.896 61.5085C313.977 61.0978 314.017 60.645 314.017 60.15Z" fill="#111111"/>
<rect x="190" y="107" width="73" height="40" rx="20" stroke="#111111" stroke-width="2"/>
<path d="M216.119 124.504V126.743H218.897V127.854H216.119V131H214.612V123.393H219.43L219.271 124.504H216.119ZM222.583 127.15C222.583 127.645 222.623 128.098 222.704 128.508C222.784 128.915 222.911 129.302 223.083 129.669C223.256 130.032 223.479 130.393 223.754 130.752C224.033 131.112 224.37 131.493 224.766 131.897L223.941 132.667C223.355 132.172 222.849 131.655 222.423 131.116C222.002 130.576 221.675 129.984 221.444 129.339C221.217 128.694 221.103 127.964 221.103 127.15C221.103 126.336 221.217 125.606 221.444 124.961C221.675 124.312 222.002 123.72 222.423 123.184C222.849 122.645 223.355 122.128 223.941 121.633L224.766 122.403C224.389 122.788 224.062 123.161 223.787 123.52C223.512 123.879 223.285 124.244 223.105 124.614C222.929 124.981 222.797 125.372 222.709 125.786C222.625 126.197 222.583 126.651 222.583 127.15ZM232.055 123.393L231.885 124.46H229.025V126.363C229.226 126.264 229.428 126.195 229.63 126.154C229.831 126.114 230.026 126.094 230.213 126.094C230.612 126.094 230.972 126.191 231.291 126.385C231.613 126.58 231.866 126.86 232.05 127.227C232.237 127.59 232.33 128.026 232.33 128.536C232.33 129.046 232.211 129.5 231.973 129.9C231.738 130.296 231.408 130.606 230.983 130.829C230.557 131.053 230.059 131.165 229.487 131.165C228.97 131.165 228.509 131.07 228.106 130.879C227.706 130.688 227.364 130.432 227.078 130.109L227.925 129.322C228.126 129.557 228.352 129.735 228.601 129.856C228.85 129.973 229.118 130.032 229.404 130.032C229.84 130.032 230.187 129.9 230.444 129.636C230.7 129.368 230.829 129.003 230.829 128.541C230.829 128.193 230.779 127.916 230.68 127.711C230.581 127.506 230.445 127.357 230.273 127.265C230.101 127.174 229.903 127.128 229.679 127.128C229.51 127.128 229.344 127.148 229.179 127.188C229.017 127.225 228.843 127.289 228.656 127.381H227.639V123.393H232.055ZM237.017 127.15C237.017 126.651 236.973 126.197 236.885 125.786C236.801 125.372 236.669 124.981 236.489 124.614C236.313 124.244 236.088 123.879 235.813 123.52C235.538 123.161 235.211 122.788 234.834 122.403L235.659 121.633C236.245 122.128 236.75 122.645 237.171 123.184C237.597 123.72 237.923 124.312 238.15 124.961C238.381 125.606 238.497 126.336 238.497 127.15C238.497 127.964 238.381 128.694 238.15 129.339C237.923 129.984 237.597 130.576 237.171 131.116C236.75 131.655 236.245 132.172 235.659 132.667L234.834 131.897C235.23 131.493 235.565 131.112 235.84 130.752C236.119 130.393 236.344 130.032 236.517 129.669C236.689 129.302 236.816 128.915 236.896 128.508C236.977 128.098 237.017 127.645 237.017 127.15Z" fill="#111111"/>
<rect x="386" y="107" width="73" height="40" rx="20" stroke="#111111" stroke-width="2"/>
<path d="M412.119 124.504V126.743H414.897V127.854H412.119V131H410.612V123.393H415.43L415.271 124.504H412.119ZM418.583 127.15C418.583 127.645 418.623 128.098 418.704 128.508C418.784 128.915 418.911 129.302 419.083 129.669C419.256 130.032 419.479 130.393 419.754 130.752C420.033 131.112 420.37 131.493 420.766 131.897L419.941 132.667C419.355 132.172 418.849 131.655 418.423 131.116C418.002 130.576 417.675 129.984 417.444 129.339C417.217 128.694 417.103 127.964 417.103 127.15C417.103 126.336 417.217 125.606 417.444 124.961C417.675 124.312 418.002 123.72 418.423 123.184C418.849 122.645 419.355 122.128 419.941 121.633L420.766 122.403C420.389 122.788 420.062 123.161 419.787 123.52C419.512 123.879 419.285 124.244 419.105 124.614C418.929 124.981 418.797 125.372 418.709 125.786C418.625 126.197 418.583 126.651 418.583 127.15ZM425.25 123.228L426.482 123.696L424.601 128.211H428.49V129.317H423.094V128.327L425.25 123.228ZM427.654 126.264V131H426.257L426.24 128.387L426.427 126.264H427.654ZM433.017 127.15C433.017 126.651 432.973 126.197 432.885 125.786C432.801 125.372 432.669 124.981 432.489 124.614C432.313 124.244 432.088 123.879 431.813 123.52C431.538 123.161 431.211 122.788 430.834 122.403L431.659 121.633C432.245 122.128 432.75 122.645 433.171 123.184C433.597 123.72 433.923 124.312 434.15 124.961C434.381 125.606 434.497 126.336 434.497 127.15C434.497 127.964 434.381 128.694 434.15 129.339C433.923 129.984 433.597 130.576 433.171 131.116C432.75 131.655 432.245 132.172 431.659 132.667L430.834 131.897C431.23 131.493 431.565 131.112 431.84 130.752C432.119 130.393 432.344 130.032 432.517 129.669C432.689 129.302 432.816 128.915 432.896 128.508C432.977 128.098 433.017 127.645 433.017 127.15Z" fill="#111111"/>
<rect x="82" y="180" width="73" height="40" rx="20" stroke="#111111" stroke-width="2"/>
<path d="M108.119 197.504V199.743H110.897V200.854H108.119V204H106.612V196.393H111.43L111.271 197.504H108.119ZM114.583 200.15C114.583 200.645 114.623 201.098 114.704 201.508C114.784 201.915 114.911 202.302 115.083 202.669C115.256 203.032 115.479 203.393 115.754 203.752C116.033 204.112 116.37 204.493 116.766 204.897L115.941 205.667C115.355 205.172 114.849 204.655 114.423 204.116C114.002 203.576 113.675 202.984 113.444 202.339C113.217 201.694 113.103 200.964 113.103 200.15C113.103 199.336 113.217 198.606 113.444 197.961C113.675 197.312 114.002 196.72 114.423 196.184C114.849 195.645 115.355 195.128 115.941 194.633L116.766 195.403C116.389 195.788 116.062 196.161 115.787 196.52C115.512 196.879 115.285 197.244 115.105 197.614C114.929 197.981 114.797 198.372 114.709 198.786C114.625 199.197 114.583 199.651 114.583 200.15ZM121.25 196.228L122.482 196.696L120.601 201.211H124.49V202.317H119.094V201.327L121.25 196.228ZM123.654 199.264V204H122.257L122.24 201.387L122.427 199.264H123.654ZM129.017 200.15C129.017 199.651 128.973 199.197 128.885 198.786C128.801 198.372 128.669 197.981 128.489 197.614C128.313 197.244 128.088 196.879 127.813 196.52C127.538 196.161 127.211 195.788 126.834 195.403L127.659 194.633C128.245 195.128 128.75 195.645 129.171 196.184C129.597 196.72 129.923 197.312 130.15 197.961C130.381 198.606 130.497 199.336 130.497 200.15C130.497 200.964 130.381 201.694 130.15 202.339C129.923 202.984 129.597 203.576 129.171 204.116C128.75 204.655 128.245 205.172 127.659 205.667L126.834 204.897C127.23 204.493 127.565 204.112 127.84 203.752C128.119 203.393 128.344 203.032 128.517 202.669C128.689 202.302 128.816 201.915 128.896 201.508C128.977 201.098 129.017 200.645 129.017 200.15Z" fill="#111111"/>
<rect x="233" y="180" width="73" height="40" rx="20" stroke="#111111" stroke-width="2"/>
<path d="M259.119 197.504V199.743H261.897V200.854H259.119V204H257.612V196.393H262.43L262.271 197.504H259.119ZM265.583 200.15C265.583 200.645 265.623 201.098 265.704 201.508C265.784 201.915 265.911 202.302 266.083 202.669C266.256 203.032 266.479 203.393 266.754 203.752C267.033 204.112 267.37 204.493 267.766 204.897L266.941 205.667C266.355 205.172 265.849 204.655 265.423 204.116C265.002 203.576 264.675 202.984 264.444 202.339C264.217 201.694 264.103 200.964 264.103 200.15C264.103 199.336 264.217 198.606 264.444 197.961C264.675 197.312 265.002 196.72 265.423 196.184C265.849 195.645 266.355 195.128 266.941 194.633L267.766 195.403C267.389 195.788 267.062 196.161 266.787 196.52C266.512 196.879 266.285 197.244 266.105 197.614C265.929 197.981 265.797 198.372 265.709 198.786C265.625 199.197 265.583 199.651 265.583 200.15ZM272.481 196.228C273.005 196.228 273.453 196.316 273.823 196.492C274.197 196.665 274.483 196.898 274.681 197.191C274.879 197.484 274.978 197.807 274.978 198.159C274.978 198.474 274.912 198.755 274.78 199C274.652 199.242 274.472 199.444 274.241 199.605C274.014 199.767 273.75 199.886 273.449 199.963C273.783 200.003 274.082 200.095 274.346 200.238C274.613 200.377 274.826 200.579 274.984 200.843C275.141 201.103 275.22 201.437 275.22 201.844C275.22 202.273 275.105 202.663 274.874 203.015C274.643 203.367 274.314 203.648 273.889 203.857C273.467 204.062 272.967 204.165 272.388 204.165C271.871 204.165 271.392 204.073 270.952 203.89C270.512 203.703 270.138 203.43 269.83 203.07L270.683 202.3C270.899 202.553 271.146 202.739 271.425 202.856C271.707 202.973 272.001 203.032 272.305 203.032C272.734 203.032 273.077 202.922 273.334 202.702C273.594 202.478 273.724 202.165 273.724 201.761C273.724 201.461 273.667 201.221 273.554 201.041C273.44 200.858 273.279 200.726 273.07 200.645C272.864 200.561 272.62 200.518 272.338 200.518H271.662L271.832 199.484H272.311C272.542 199.484 272.751 199.444 272.938 199.363C273.128 199.283 273.279 199.16 273.389 198.995C273.502 198.83 273.559 198.623 273.559 198.373C273.559 198.043 273.444 197.787 273.213 197.603C272.982 197.416 272.692 197.323 272.344 197.323C272.028 197.323 271.748 197.382 271.502 197.499C271.256 197.616 271.018 197.783 270.787 197.999L270.034 197.202C270.371 196.876 270.743 196.632 271.15 196.47C271.561 196.309 272.004 196.228 272.481 196.228ZM280.017 200.15C280.017 199.651 279.973 199.197 279.885 198.786C279.801 198.372 279.669 197.981 279.489 197.614C279.313 197.244 279.088 196.879 278.813 196.52C278.538 196.161 278.211 195.788 277.834 195.403L278.659 194.633C279.245 195.128 279.75 195.645 280.171 196.184C280.597 196.72 280.923 197.312 281.15 197.961C281.381 198.606 281.497 199.336 281.497 200.15C281.497 200.964 281.381 201.694 281.15 202.339C280.923 202.984 280.597 203.576 280.171 204.116C279.75 204.655 279.245 205.172 278.659 205.667L277.834 204.897C278.23 204.493 278.565 204.112 278.84 203.752C279.119 203.393 279.344 203.032 279.517 202.669C279.689 202.302 279.816 201.915 279.896 201.508C279.977 201.098 280.017 200.645 280.017 200.15Z" fill="#111111"/>
<rect x="369" y="180" width="73" height="40" rx="20" stroke="#111111" stroke-width="2"/>
<path d="M395.119 197.504V199.743H397.897V200.854H395.119V204H393.612V196.393H398.43L398.271 197.504H395.119ZM401.583 200.15C401.583 200.645 401.623 201.098 401.704 201.508C401.784 201.915 401.911 202.302 402.083 202.669C402.256 203.032 402.479 203.393 402.754 203.752C403.033 204.112 403.37 204.493 403.766 204.897L402.941 205.667C402.355 205.172 401.849 204.655 401.423 204.116C401.002 203.576 400.675 202.984 400.444 202.339C400.217 201.694 400.103 200.964 400.103 200.15C400.103 199.336 400.217 198.606 400.444 197.961C400.675 197.312 401.002 196.72 401.423 196.184C401.849 195.645 402.355 195.128 402.941 194.633L403.766 195.403C403.389 195.788 403.062 196.161 402.787 196.52C402.512 196.879 402.285 197.244 402.105 197.614C401.929 197.981 401.797 198.372 401.709 198.786C401.625 199.197 401.583 199.651 401.583 200.15ZM408.481 196.228C409.005 196.228 409.453 196.316 409.823 196.492C410.197 196.665 410.483 196.898 410.681 197.191C410.879 197.484 410.978 197.807 410.978 198.159C410.978 198.474 410.912 198.755 410.78 199C410.652 199.242 410.472 199.444 410.241 199.605C410.014 199.767 409.75 199.886 409.449 199.963C409.783 200.003 410.082 200.095 410.346 200.238C410.613 200.377 410.826 200.579 410.984 200.843C411.141 201.103 411.22 201.437 411.22 201.844C411.22 202.273 411.105 202.663 410.874 203.015C410.643 203.367 410.314 203.648 409.889 203.857C409.467 204.062 408.967 204.165 408.388 204.165C407.871 204.165 407.392 204.073 406.952 203.89C406.512 203.703 406.138 203.43 405.83 203.07L406.683 202.3C406.899 202.553 407.146 202.739 407.425 202.856C407.707 202.973 408.001 203.032 408.305 203.032C408.734 203.032 409.077 202.922 409.334 202.702C409.594 202.478 409.724 202.165 409.724 201.761C409.724 201.461 409.667 201.221 409.554 201.041C409.44 200.858 409.279 200.726 409.07 200.645C408.864 200.561 408.62 200.518 408.338 200.518H407.662L407.832 199.484H408.311C408.542 199.484 408.751 199.444 408.938 199.363C409.128 199.283 409.279 199.16 409.389 198.995C409.502 198.83 409.559 198.623 409.559 198.373C409.559 198.043 409.444 197.787 409.213 197.603C408.982 197.416 408.692 197.323 408.344 197.323C408.028 197.323 407.748 197.382 407.502 197.499C407.256 197.616 407.018 197.783 406.787 197.999L406.034 197.202C406.371 196.876 406.743 196.632 407.15 196.47C407.561 196.309 408.004 196.228 408.481 196.228ZM416.017 200.15C416.017 199.651 415.973 199.197 415.885 198.786C415.801 198.372 415.669 197.981 415.489 197.614C415.313 197.244 415.088 196.879 414.813 196.52C414.538 196.161 414.211 195.788 413.834 195.403L414.659 194.633C415.245 195.128 415.75 195.645 416.171 196.184C416.597 196.72 416.923 197.312 417.15 197.961C417.381 198.606 417.497 199.336 417.497 200.15C417.497 200.964 417.381 201.694 417.15 202.339C416.923 202.984 416.597 203.576 416.171 204.116C415.75 204.655 415.245 205.172 414.659 205.667L413.834 204.897C414.23 204.493 414.565 204.112 414.84 203.752C415.119 203.393 415.344 203.032 415.517 202.669C415.689 202.302 415.816 201.915 415.896 201.508C415.977 201.098 416.017 200.645 416.017 200.15Z" fill="#111111"/>
<rect x="494" y="180" width="73" height="40" rx="20" stroke="#111111" stroke-width="2"/>
<path d="M520.119 197.504V199.743H522.897V200.854H520.119V204H518.612V196.393H523.43L523.271 197.504H520.119ZM526.583 200.15C526.583 200.645 526.623 201.098 526.704 201.508C526.784 201.915 526.911 202.302 527.083 202.669C527.256 203.032 527.479 203.393 527.754 203.752C528.033 204.112 528.37 204.493 528.766 204.897L527.941 205.667C527.355 205.172 526.849 204.655 526.423 204.116C526.002 203.576 525.675 202.984 525.444 202.339C525.217 201.694 525.103 200.964 525.103 200.15C525.103 199.336 525.217 198.606 525.444 197.961C525.675 197.312 526.002 196.72 526.423 196.184C526.849 195.645 527.355 195.128 527.941 194.633L528.766 195.403C528.389 195.788 528.062 196.161 527.787 196.52C527.512 196.879 527.285 197.244 527.105 197.614C526.929 197.981 526.797 198.372 526.709 198.786C526.625 199.197 526.583 199.651 526.583 200.15ZM533.509 196.228C534.055 196.228 534.513 196.326 534.884 196.52C535.258 196.714 535.54 196.976 535.731 197.306C535.921 197.633 536.017 197.992 536.017 198.384C536.017 198.707 535.962 199.022 535.852 199.33C535.742 199.638 535.562 199.963 535.313 200.304C535.067 200.645 534.741 201.024 534.334 201.442C533.927 201.857 533.424 202.33 532.827 202.861H536.193L536.033 204H531.166V202.938C531.69 202.432 532.143 201.987 532.524 201.602C532.905 201.213 533.224 200.87 533.481 200.573C533.741 200.276 533.947 200.011 534.097 199.776C534.251 199.538 534.361 199.316 534.427 199.11C534.493 198.905 534.526 198.7 534.526 198.494C534.526 198.146 534.425 197.871 534.224 197.669C534.026 197.468 533.747 197.367 533.388 197.367C533.069 197.367 532.797 197.429 532.574 197.554C532.354 197.675 532.137 197.873 531.925 198.148L531.012 197.455C531.301 197.066 531.646 196.766 532.046 196.553C532.445 196.337 532.933 196.228 533.509 196.228ZM541.017 200.15C541.017 199.651 540.973 199.197 540.885 198.786C540.801 198.372 540.669 197.981 540.489 197.614C540.313 197.244 540.088 196.879 539.813 196.52C539.538 196.161 539.211 195.788 538.834 195.403L539.659 194.633C540.245 195.128 540.75 195.645 541.171 196.184C541.597 196.72 541.923 197.312 542.15 197.961C542.381 198.606 542.497 199.336 542.497 200.15C542.497 200.964 542.381 201.694 542.15 202.339C541.923 202.984 541.597 203.576 541.171 204.116C540.75 204.655 540.245 205.172 539.659 205.667L538.834 204.897C539.23 204.493 539.565 204.112 539.84 203.752C540.119 203.393 540.344 203.032 540.517 202.669C540.689 202.302 540.816 201.915 540.896 201.508C540.977 201.098 541.017 200.645 541.017 200.15Z" fill="#111111"/>
<rect x="20" y="260" width="73" height="40" rx="20" stroke="#111111" stroke-width="2"/>
<path d="M46.1191 277.504V279.743H48.8966V280.854H46.1191V284H44.6121V276.393H49.4301L49.2706 277.504H46.1191ZM52.5828 280.15C52.5828 280.645 52.6231 281.098 52.7038 281.508C52.7845 281.915 52.911 282.302 53.0833 282.669C53.2556 283.032 53.4793 283.393 53.7543 283.752C54.033 284.112 54.3703 284.493 54.7663 284.897L53.9413 285.667C53.3546 285.172 52.8486 284.655 52.4233 284.116C52.0016 283.576 51.6753 282.984 51.4443 282.339C51.217 281.694 51.1033 280.964 51.1033 280.15C51.1033 279.336 51.217 278.606 51.4443 277.961C51.6753 277.312 52.0016 276.72 52.4233 276.184C52.8486 275.645 53.3546 275.128 53.9413 274.633L54.7663 275.403C54.3886 275.788 54.0623 276.161 53.7873 276.52C53.5123 276.879 53.285 277.244 53.1053 277.614C52.9293 277.981 52.7973 278.372 52.7093 278.786C52.625 279.197 52.5828 279.651 52.5828 280.15ZM59.481 276.228C60.0053 276.228 60.4527 276.316 60.823 276.492C61.197 276.665 61.483 276.898 61.681 277.191C61.879 277.484 61.978 277.807 61.978 278.159C61.978 278.474 61.912 278.755 61.78 279C61.6517 279.242 61.472 279.444 61.241 279.605C61.0137 279.767 60.7497 279.886 60.449 279.963C60.7827 280.003 61.0815 280.095 61.3455 280.238C61.6132 280.377 61.8258 280.579 61.9835 280.843C62.1412 281.103 62.22 281.437 62.22 281.844C62.22 282.273 62.1045 282.663 61.8735 283.015C61.6425 283.367 61.3143 283.648 60.889 283.857C60.4673 284.062 59.9668 284.165 59.3875 284.165C58.8705 284.165 58.392 284.073 57.952 283.89C57.512 283.703 57.138 283.43 56.83 283.07L57.6825 282.3C57.8988 282.553 58.1463 282.739 58.425 282.856C58.7073 282.973 59.0007 283.032 59.305 283.032C59.734 283.032 60.0768 282.922 60.3335 282.702C60.5938 282.478 60.724 282.165 60.724 281.761C60.724 281.461 60.6672 281.221 60.5535 281.041C60.4398 280.858 60.2785 280.726 60.0695 280.645C59.8642 280.561 59.6203 280.518 59.338 280.518H58.6615L58.832 279.484H59.3105C59.5415 279.484 59.7505 279.444 59.9375 279.363C60.1282 279.283 60.2785 279.16 60.3885 278.995C60.5022 278.83 60.559 278.623 60.559 278.373C60.559 278.043 60.4435 277.787 60.2125 277.603C59.9815 277.416 59.6918 277.323 59.3435 277.323C59.0282 277.323 58.7477 277.382 58.502 277.499C58.2563 277.616 58.018 277.783 57.787 277.999L57.0335 277.202C57.3708 276.876 57.743 276.632 58.15 276.47C58.5607 276.309 59.0043 276.228 59.481 276.228ZM67.0172 280.15C67.0172 279.651 66.9732 279.197 66.8852 278.786C66.8009 278.372 66.6689 277.981 66.4892 277.614C66.3132 277.244 66.0877 276.879 65.8127 276.52C65.5377 276.161 65.2114 275.788 64.8337 275.403L65.6587 274.633C66.2454 275.128 66.7495 275.645 67.1712 276.184C67.5965 276.72 67.9229 277.312 68.1502 277.961C68.3812 278.606 68.4967 279.336 68.4967 280.15C68.4967 280.964 68.3812 281.694 68.1502 282.339C67.9229 282.984 67.5965 283.576 67.1712 284.116C66.7495 284.655 66.2454 285.172 65.6587 285.667L64.8337 284.897C65.2297 284.493 65.5652 284.112 65.8402 283.752C66.1189 283.393 66.3444 283.032 66.5167 282.669C66.689 282.302 66.8155 281.915 66.8962 281.508C66.9769 281.098 67.0172 280.645 67.0172 280.15Z" fill="#111111"/>
<rect x="108" y="260" width="73" height="40" rx="20" stroke="#111111" stroke-width="2"/>
<path d="M134.119 277.504V279.743H136.897V280.854H134.119V284H132.612V276.393H137.43L137.271 277.504H134.119ZM140.583 280.15C140.583 280.645 140.623 281.098 140.704 281.508C140.784 281.915 140.911 282.302 141.083 282.669C141.256 283.032 141.479 283.393 141.754 283.752C142.033 284.112 142.37 284.493 142.766 284.897L141.941 285.667C141.355 285.172 140.849 284.655 140.423 284.116C140.002 283.576 139.675 282.984 139.444 282.339C139.217 281.694 139.103 280.964 139.103 280.15C139.103 279.336 139.217 278.606 139.444 277.961C139.675 277.312 140.002 276.72 140.423 276.184C140.849 275.645 141.355 275.128 141.941 274.633L142.766 275.403C142.389 275.788 142.062 276.161 141.787 276.52C141.512 276.879 141.285 277.244 141.105 277.614C140.929 277.981 140.797 278.372 140.709 278.786C140.625 279.197 140.583 279.651 140.583 280.15ZM147.509 276.228C148.055 276.228 148.513 276.326 148.884 276.52C149.258 276.714 149.54 276.976 149.731 277.306C149.921 277.633 150.017 277.992 150.017 278.384C150.017 278.707 149.962 279.022 149.852 279.33C149.742 279.638 149.562 279.963 149.313 280.304C149.067 280.645 148.741 281.024 148.334 281.442C147.927 281.857 147.424 282.33 146.827 282.861H150.193L150.033 284H145.166V282.938C145.69 282.432 146.143 281.987 146.524 281.602C146.905 281.213 147.224 280.87 147.481 280.573C147.741 280.276 147.947 280.011 148.097 279.776C148.251 279.538 148.361 279.316 148.427 279.11C148.493 278.905 148.526 278.7 148.526 278.494C148.526 278.146 148.425 277.871 148.224 277.669C148.026 277.468 147.747 277.367 147.388 277.367C147.069 277.367 146.797 277.429 146.574 277.554C146.354 277.675 146.137 277.873 145.925 278.148L145.012 277.455C145.301 277.066 145.646 276.766 146.046 276.553C146.445 276.337 146.933 276.228 147.509 276.228ZM155.017 280.15C155.017 279.651 154.973 279.197 154.885 278.786C154.801 278.372 154.669 277.981 154.489 277.614C154.313 277.244 154.088 276.879 153.813 276.52C153.538 276.161 153.211 275.788 152.834 275.403L153.659 274.633C154.245 275.128 154.75 275.645 155.171 276.184C155.597 276.72 155.923 277.312 156.15 277.961C156.381 278.606 156.497 279.336 156.497 280.15C156.497 280.964 156.381 281.694 156.15 282.339C155.923 282.984 155.597 283.576 155.171 284.116C154.75 284.655 154.245 285.172 153.659 285.667L152.834 284.897C153.23 284.493 153.565 284.112 153.84 283.752C154.119 283.393 154.344 283.032 154.517 282.669C154.689 282.302 154.816 281.915 154.896 281.508C154.977 281.098 155.017 280.645 155.017 280.15Z" fill="#111111"/>
<rect x="196" y="260" width="73" height="40" rx="20" stroke="#111111" stroke-width="2"/>
<path d="M222.119 277.504V279.743H224.897V280.854H222.119V284H220.612V276.393H225.43L225.271 277.504H222.119ZM228.583 280.15C228.583 280.645 228.623 281.098 228.704 281.508C228.784 281.915 228.911 282.302 229.083 282.669C229.256 283.032 229.479 283.393 229.754 283.752C230.033 284.112 230.37 284.493 230.766 284.897L229.941 285.667C229.355 285.172 228.849 284.655 228.423 284.116C228.002 283.576 227.675 282.984 227.444 282.339C227.217 281.694 227.103 280.964 227.103 280.15C227.103 279.336 227.217 278.606 227.444 277.961C227.675 277.312 228.002 276.72 228.423 276.184C228.849 275.645 229.355 275.128 229.941 274.633L230.766 275.403C230.389 275.788 230.062 276.161 229.787 276.52C229.512 276.879 229.285 277.244 229.105 277.614C228.929 277.981 228.797 278.372 228.709 278.786C228.625 279.197 228.583 279.651 228.583 280.15ZM235.509 276.228C236.055 276.228 236.513 276.326 236.884 276.52C237.258 276.714 237.54 276.976 237.731 277.306C237.921 277.633 238.017 277.992 238.017 278.384C238.017 278.707 237.962 279.022 237.852 279.33C237.742 279.638 237.562 279.963 237.313 280.304C237.067 280.645 236.741 281.024 236.334 281.442C235.927 281.857 235.424 282.33 234.827 282.861H238.193L238.033 284H233.166V282.938C233.69 282.432 234.143 281.987 234.524 281.602C234.905 281.213 235.224 280.87 235.481 280.573C235.741 280.276 235.947 280.011 236.097 279.776C236.251 279.538 236.361 279.316 236.427 279.11C236.493 278.905 236.526 278.7 236.526 278.494C236.526 278.146 236.425 277.871 236.224 277.669C236.026 277.468 235.747 277.367 235.388 277.367C235.069 277.367 234.797 277.429 234.574 277.554C234.354 277.675 234.137 277.873 233.925 278.148L233.012 277.455C233.301 277.066 233.646 276.766 234.046 276.553C234.445 276.337 234.933 276.228 235.509 276.228ZM243.017 280.15C243.017 279.651 242.973 279.197 242.885 278.786C242.801 278.372 242.669 277.981 242.489 277.614C242.313 277.244 242.088 276.879 241.813 276.52C241.538 276.161 241.211 275.788 240.834 275.403L241.659 274.633C242.245 275.128 242.75 275.645 243.171 276.184C243.597 276.72 243.923 277.312 244.15 277.961C244.381 278.606 244.497 279.336 244.497 280.15C244.497 280.964 244.381 281.694 244.15 282.339C243.923 282.984 243.597 283.576 243.171 284.116C242.75 284.655 242.245 285.172 241.659 285.667L240.834 284.897C241.23 284.493 241.565 284.112 241.84 283.752C242.119 283.393 242.344 283.032 242.517 282.669C242.689 282.302 242.816 281.915 242.896 281.508C242.977 281.098 243.017 280.645 243.017 280.15Z" fill="#111111"/>
<rect x="2" y="340" width="73" height="40" rx="20" stroke="#111111" stroke-width="2"/>
<path d="M28.1191 357.504V359.743H30.8966V360.854H28.1191V364H26.6121V356.393H31.4301L31.2706 357.504H28.1191ZM34.5828 360.15C34.5828 360.645 34.6231 361.098 34.7038 361.508C34.7845 361.915 34.911 362.302 35.0833 362.669C35.2556 363.032 35.4793 363.393 35.7543 363.752C36.033 364.112 36.3703 364.493 36.7663 364.897L35.9413 365.667C35.3546 365.172 34.8486 364.655 34.4233 364.116C34.0016 363.576 33.6753 362.984 33.4443 362.339C33.217 361.694 33.1033 360.964 33.1033 360.15C33.1033 359.336 33.217 358.606 33.4443 357.961C33.6753 357.312 34.0016 356.72 34.4233 356.184C34.8486 355.645 35.3546 355.128 35.9413 354.633L36.7663 355.403C36.3886 355.788 36.0623 356.161 35.7873 356.52C35.5123 356.879 35.285 357.244 35.1053 357.614C34.9293 357.981 34.7973 358.372 34.7093 358.786C34.625 359.197 34.5828 359.651 34.5828 360.15ZM41.5085 356.228C42.0548 356.228 42.5132 356.326 42.8835 356.52C43.2575 356.714 43.5398 356.976 43.7305 357.306C43.9212 357.633 44.0165 357.992 44.0165 358.384C44.0165 358.707 43.9615 359.022 43.8515 359.33C43.7415 359.638 43.5618 359.963 43.3125 360.304C43.0668 360.645 42.7405 361.024 42.3335 361.442C41.9265 361.857 41.4242 362.33 40.8265 362.861H44.1925L44.033 364H39.1655V362.938C39.6898 362.432 40.1427 361.987 40.524 361.602C40.9053 361.213 41.2243 360.87 41.481 360.573C41.7413 360.276 41.9467 360.011 42.097 359.776C42.251 359.538 42.361 359.316 42.427 359.11C42.493 358.905 42.526 358.7 42.526 358.494C42.526 358.146 42.4252 357.871 42.2235 357.669C42.0255 357.468 41.7468 357.367 41.3875 357.367C41.0685 357.367 40.7972 357.429 40.5735 357.554C40.3535 357.675 40.1372 357.873 39.9245 358.148L39.0115 357.455C39.3012 357.066 39.6458 356.766 40.0455 356.553C40.4452 356.337 40.9328 356.228 41.5085 356.228ZM49.0172 360.15C49.0172 359.651 48.9732 359.197 48.8852 358.786C48.8009 358.372 48.6689 357.981 48.4892 357.614C48.3132 357.244 48.0877 356.879 47.8127 356.52C47.5377 356.161 47.2114 355.788 46.8337 355.403L47.6587 354.633C48.2454 355.128 48.7495 355.645 49.1712 356.184C49.5965 356.72 49.9229 357.312 50.1502 357.961C50.3812 358.606 50.4967 359.336 50.4967 360.15C50.4967 360.964 50.3812 361.694 50.1502 362.339C49.9229 362.984 49.5965 363.576 49.1712 364.116C48.7495 364.655 48.2454 365.172 47.6587 365.667L46.8337 364.897C47.2297 364.493 47.5652 364.112 47.8402 363.752C48.1189 363.393 48.3444 363.032 48.5167 362.669C48.689 362.302 48.8155 361.915 48.8962 361.508C48.9769 361.098 49.0172 360.645 49.0172 360.15Z" fill="#111111"/>
<rect x="90" y="340" width="73" height="40" rx="20" stroke="#111111" stroke-width="2"/>
<path d="M116.119 357.504V359.743H118.897V360.854H116.119V364H114.612V356.393H119.43L119.271 357.504H116.119ZM122.583 360.15C122.583 360.645 122.623 361.098 122.704 361.508C122.784 361.915 122.911 362.302 123.083 362.669C123.256 363.032 123.479 363.393 123.754 363.752C124.033 364.112 124.37 364.493 124.766 364.897L123.941 365.667C123.355 365.172 122.849 364.655 122.423 364.116C122.002 363.576 121.675 362.984 121.444 362.339C121.217 361.694 121.103 360.964 121.103 360.15C121.103 359.336 121.217 358.606 121.444 357.961C121.675 357.312 122.002 356.72 122.423 356.184C122.849 355.645 123.355 355.128 123.941 354.633L124.766 355.403C124.389 355.788 124.062 356.161 123.787 356.52C123.512 356.879 123.285 357.244 123.105 357.614C122.929 357.981 122.797 358.372 122.709 358.786C122.625 359.197 122.583 359.651 122.583 360.15ZM130.95 356.393V363.78H129.525V357.856L127.903 358.863L127.281 357.856L129.668 356.393H130.95ZM132.429 362.883V364H127.683V362.883H132.429ZM137.017 360.15C137.017 359.651 136.973 359.197 136.885 358.786C136.801 358.372 136.669 357.981 136.489 357.614C136.313 357.244 136.088 356.879 135.813 356.52C135.538 356.161 135.211 355.788 134.834 355.403L135.659 354.633C136.245 355.128 136.75 355.645 137.171 356.184C137.597 356.72 137.923 357.312 138.15 357.961C138.381 358.606 138.497 359.336 138.497 360.15C138.497 360.964 138.381 361.694 138.15 362.339C137.923 362.984 137.597 363.576 137.171 364.116C136.75 364.655 136.245 365.172 135.659 365.667L134.834 364.897C135.23 364.493 135.565 364.112 135.84 363.752C136.119 363.393 136.344 363.032 136.517 362.669C136.689 362.302 136.816 361.915 136.896 361.508C136.977 361.098 137.017 360.645 137.017 360.15Z" fill="#111111"/>
<rect x="284" y="260" width="73" height="40" rx="20" stroke="#111111" stroke-width="2"/>
<path d="M310.119 277.504V279.743H312.897V280.854H310.119V284H308.612V276.393H313.43L313.271 277.504H310.119ZM316.583 280.15C316.583 280.645 316.623 281.098 316.704 281.508C316.784 281.915 316.911 282.302 317.083 282.669C317.256 283.032 317.479 283.393 317.754 283.752C318.033 284.112 318.37 284.493 318.766 284.897L317.941 285.667C317.355 285.172 316.849 284.655 316.423 284.116C316.002 283.576 315.675 282.984 315.444 282.339C315.217 281.694 315.103 280.964 315.103 280.15C315.103 279.336 315.217 278.606 315.444 277.961C315.675 277.312 316.002 276.72 316.423 276.184C316.849 275.645 317.355 275.128 317.941 274.633L318.766 275.403C318.389 275.788 318.062 276.161 317.787 276.52C317.512 276.879 317.285 277.244 317.105 277.614C316.929 277.981 316.797 278.372 316.709 278.786C316.625 279.197 316.583 279.651 316.583 280.15ZM324.95 276.393V283.78H323.525V277.856L321.903 278.863L321.281 277.856L323.668 276.393H324.95ZM326.429 282.883V284H321.683V282.883H326.429ZM331.017 280.15C331.017 279.651 330.973 279.197 330.885 278.786C330.801 278.372 330.669 277.981 330.489 277.614C330.313 277.244 330.088 276.879 329.813 276.52C329.538 276.161 329.211 275.788 328.834 275.403L329.659 274.633C330.245 275.128 330.75 275.645 331.171 276.184C331.597 276.72 331.923 277.312 332.15 277.961C332.381 278.606 332.497 279.336 332.497 280.15C332.497 280.964 332.381 281.694 332.15 282.339C331.923 282.984 331.597 283.576 331.171 284.116C330.75 284.655 330.245 285.172 329.659 285.667L328.834 284.897C329.23 284.493 329.565 284.112 329.84 283.752C330.119 283.393 330.344 283.032 330.517 282.669C330.689 282.302 330.816 281.915 330.896 281.508C330.977 281.098 331.017 280.645 331.017 280.15Z" fill="#111111"/>
<rect x="372" y="260" width="73" height="40" rx="20" stroke="#111111" stroke-width="2"/>
<path d="M398.119 277.504V279.743H400.897V280.854H398.119V284H396.612V276.393H401.43L401.271 277.504H398.119ZM404.583 280.15C404.583 280.645 404.623 281.098 404.704 281.508C404.784 281.915 404.911 282.302 405.083 282.669C405.256 283.032 405.479 283.393 405.754 283.752C406.033 284.112 406.37 284.493 406.766 284.897L405.941 285.667C405.355 285.172 404.849 284.655 404.423 284.116C404.002 283.576 403.675 282.984 403.444 282.339C403.217 281.694 403.103 280.964 403.103 280.15C403.103 279.336 403.217 278.606 403.444 277.961C403.675 277.312 404.002 276.72 404.423 276.184C404.849 275.645 405.355 275.128 405.941 274.633L406.766 275.403C406.389 275.788 406.062 276.161 405.787 276.52C405.512 276.879 405.285 277.244 405.105 277.614C404.929 277.981 404.797 278.372 404.709 278.786C404.625 279.197 404.583 279.651 404.583 280.15ZM411.509 276.228C412.055 276.228 412.513 276.326 412.884 276.52C413.258 276.714 413.54 276.976 413.731 277.306C413.921 277.633 414.017 277.992 414.017 278.384C414.017 278.707 413.962 279.022 413.852 279.33C413.742 279.638 413.562 279.963 413.313 280.304C413.067 280.645 412.741 281.024 412.334 281.442C411.927 281.857 411.424 282.33 410.827 282.861H414.193L414.033 284H409.166V282.938C409.69 282.432 410.143 281.987 410.524 281.602C410.905 281.213 411.224 280.87 411.481 280.573C411.741 280.276 411.947 280.011 412.097 279.776C412.251 279.538 412.361 279.316 412.427 279.11C412.493 278.905 412.526 278.7 412.526 278.494C412.526 278.146 412.425 277.871 412.224 277.669C412.026 277.468 411.747 277.367 411.388 277.367C411.069 277.367 410.797 277.429 410.574 277.554C410.354 277.675 410.137 277.873 409.925 278.148L409.012 277.455C409.301 277.066 409.646 276.766 410.046 276.553C410.445 276.337 410.933 276.228 411.509 276.228ZM419.017 280.15C419.017 279.651 418.973 279.197 418.885 278.786C418.801 278.372 418.669 277.981 418.489 277.614C418.313 277.244 418.088 276.879 417.813 276.52C417.538 276.161 417.211 275.788 416.834 275.403L417.659 274.633C418.245 275.128 418.75 275.645 419.171 276.184C419.597 276.72 419.923 277.312 420.15 277.961C420.381 278.606 420.497 279.336 420.497 280.15C420.497 280.964 420.381 281.694 420.15 282.339C419.923 282.984 419.597 283.576 419.171 284.116C418.75 284.655 418.245 285.172 417.659 285.667L416.834 284.897C417.23 284.493 417.565 284.112 417.84 283.752C418.119 283.393 418.344 283.032 418.517 282.669C418.689 282.302 418.816 281.915 418.896 281.508C418.977 281.098 419.017 280.645 419.017 280.15Z" fill="#111111"/>
<rect x="460" y="260" width="73" height="40" rx="20" stroke="#111111" stroke-width="2"/>
<path d="M486.119 277.504V279.743H488.897V280.854H486.119V284H484.612V276.393H489.43L489.271 277.504H486.119ZM492.583 280.15C492.583 280.645 492.623 281.098 492.704 281.508C492.784 281.915 492.911 282.302 493.083 282.669C493.256 283.032 493.479 283.393 493.754 283.752C494.033 284.112 494.37 284.493 494.766 284.897L493.941 285.667C493.355 285.172 492.849 284.655 492.423 284.116C492.002 283.576 491.675 282.984 491.444 282.339C491.217 281.694 491.103 280.964 491.103 280.15C491.103 279.336 491.217 278.606 491.444 277.961C491.675 277.312 492.002 276.72 492.423 276.184C492.849 275.645 493.355 275.128 493.941 274.633L494.766 275.403C494.389 275.788 494.062 276.161 493.787 276.52C493.512 276.879 493.285 277.244 493.105 277.614C492.929 277.981 492.797 278.372 492.709 278.786C492.625 279.197 492.583 279.651 492.583 280.15ZM500.95 276.393V283.78H499.525V277.856L497.903 278.863L497.281 277.856L499.668 276.393H500.95ZM502.429 282.883V284H497.683V282.883H502.429ZM507.017 280.15C507.017 279.651 506.973 279.197 506.885 278.786C506.801 278.372 506.669 277.981 506.489 277.614C506.313 277.244 506.088 276.879 505.813 276.52C505.538 276.161 505.211 275.788 504.834 275.403L505.659 274.633C506.245 275.128 506.75 275.645 507.171 276.184C507.597 276.72 507.923 277.312 508.15 277.961C508.381 278.606 508.497 279.336 508.497 280.15C508.497 280.964 508.381 281.694 508.15 282.339C507.923 282.984 507.597 283.576 507.171 284.116C506.75 284.655 506.245 285.172 505.659 285.667L504.834 284.897C505.23 284.493 505.565 284.112 505.84 283.752C506.119 283.393 506.344 283.032 506.517 282.669C506.689 282.302 506.816 281.915 506.896 281.508C506.977 281.098 507.017 280.645 507.017 280.15Z" fill="#111111"/>
<path d="M303 80L233 107" stroke="#111111" stroke-width="2" stroke-linecap="round"/>
<path d="M423 147L400 180" stroke="#111111" stroke-width="2" stroke-linecap="round"/>
<path d="M423 147L530 180" stroke="#111111" stroke-width="2" stroke-linecap="round"/>
<path d="M225 147L269 180" stroke="#111111" stroke-width="2" stroke-linecap="round"/>
<path d="M225 147L122 180" stroke="#111111" stroke-width="2" stroke-linecap="round"/>
<path d="M123 220L144 260" stroke="#111111" stroke-width="2" stroke-linecap="round"/>
<path d="M123 220L56 260" stroke="#111111" stroke-width="2" stroke-linecap="round"/>
<path d="M61 300L118 340" stroke="#111111" stroke-width="2" stroke-linecap="round"/>
<path d="M61 300L40 340" stroke="#111111" stroke-width="2" stroke-linecap="round"/>
<path d="M270 220L320 260" stroke="#111111" stroke-width="2" stroke-linecap="round"/>
<path d="M270 220L233 260" stroke="#111111" stroke-width="2" stroke-linecap="round"/>
<path d="M415 220L494 260" stroke="#111111" stroke-width="2" stroke-linecap="round"/>
<path d="M415 220L409 260" stroke="#111111" stroke-width="2" stroke-linecap="round"/>
<path d="M303 80L422 107" stroke="#111111" stroke-width="2" stroke-linecap="round"/>
</svg>
